<?xml version="1.0" encoding="UTF-8"?><svg id="Layer_2" xmlns="http://www.w3.org/2000/svg" viewBox="0 0 100.01 36"><defs><style>.cls-1{fill:#1d3966;}.cls-1,.cls-2,.cls-3{stroke-width:0px;}.cls-2{fill:#ff2422;}.cls-3{fill:#fff;}</style></defs><g id="Layer_1-2"><path class="cls-2" d="M0,18c0,14.78,2.46,18,13.77,18,11.3,0,13.77-3.22,13.77-18C27.53,3.22,25.07,0,13.77,0,2.46,0,0,3.22,0,18Z"/><circle class="cls-3" cx="14.27" cy="6.87" r="3.16"/><path class="cls-3" d="M8.1,31.31h-1.28v-12.11c0-4.15,3.34-7.61,7.49-7.58s7.39,3.33,7.41,7.41c.02,4.15-3.43,7.49-7.58,7.49h-2.12v-1.28c0-1.18.95-2.13,2.13-2.13,2.34,0,4.11-1.74,4.16-3.95s-1.83-4.18-4.13-4.13c-2.21.05-3.95,1.91-3.95,4.12v10.03c0,1.18-.95,2.13-2.13,2.13Z"/><path class="cls-1" d="M37.9,22.82v4.36l2.01.33v1.48h-6.1v-1.48l1.79-.33v-13.89l-1.91-.33v-1.48h3.88l.21,1.54c.87-1.18,2.08-1.78,3.64-1.78,1.05,0,1.94.28,2.68.84.74.57,1.31,1.36,1.69,2.38.39,1.02.58,2.21.58,3.57v.25c0,1.21-.19,2.27-.58,3.19-.4.91-.96,1.62-1.69,2.13-.73.51-1.61.77-2.64.77-1.54,0-2.72-.52-3.55-1.55ZM40.74,22.57c1.09,0,1.92-.4,2.48-1.19s.84-1.83.84-3.1v-.25c0-.96-.12-1.81-.37-2.56-.25-.74-.62-1.32-1.12-1.74-.49-.42-1.11-.63-1.85-.63-.65,0-1.22.15-1.68.44-.47.3-.85.7-1.13,1.22v6.16c.29.52.66.93,1.13,1.21.46.28,1.03.43,1.71.43Z"/><path class="cls-1" d="M51.35,15.16v7.17l1.91.33v1.47h-6.11v-1.47l1.91-.33v-9.04l-1.91-.33v-1.48h3.96l.2,1.61.02.22c.36-.65.8-1.15,1.33-1.52.53-.37,1.13-.55,1.81-.55.24,0,.49.02.74.06.25.04.43.08.54.12l-.3,2.14-1.6-.09c-.61-.04-1.12.1-1.53.41-.41.32-.73.74-.96,1.27Z"/><path class="cls-1" d="M61.31,24.37c-1.16,0-2.17-.28-3.02-.83-.85-.55-1.5-1.31-1.96-2.28-.46-.97-.69-2.07-.69-3.32v-.26c0-1.24.23-2.35.69-3.33.46-.97,1.11-1.74,1.96-2.29.85-.55,1.84-.82,3-.82s2.17.28,3.03.83c.84.55,1.49,1.31,1.95,2.28.46.97.69,2.08.69,3.33v.26c0,1.24-.23,2.35-.69,3.33-.46.97-1.11,1.72-1.95,2.27s-1.84.82-3,.82ZM61.31,22.57c.73,0,1.35-.2,1.85-.61.49-.4.86-.94,1.12-1.64.25-.7.38-1.49.38-2.38v-.26c0-.88-.12-1.68-.37-2.38-.26-.69-.64-1.24-1.13-1.64-.5-.4-1.12-.6-1.86-.6s-1.34.2-1.85.6c-.5.41-.87.96-1.12,1.65-.25.7-.37,1.49-.37,2.38v.26c0,.88.12,1.67.37,2.37.25.7.63,1.25,1.13,1.65.5.4,1.12.6,1.86.6Z"/><path class="cls-1" d="M74.34,13.19h-2.76v9.14l2.17.33v1.47h-6.38v-1.47l1.91-.33v-9.14h-1.98v-1.71h1.98v-1.6c0-1.35.35-2.39,1.06-3.13.71-.74,1.69-1.1,2.95-1.1.26,0,.55.02.86.06.31.04.63.1.95.18l-.28,1.75c-.14-.03-.33-.06-.57-.08-.24-.02-.46-.04-.67-.04-1.33,0-2,.78-2,2.35v1.6h2.76v1.71Z"/><path class="cls-1" d="M77.64,22.33v-9.04l-1.91-.33v-1.48h4.21v10.85l1.91.33v1.47h-6.11v-1.47l1.91-.33ZM77.53,8.36v-2.47h2.42v2.47h-2.42Z"/><path class="cls-1" d="M85.01,22.33V7.71l-1.91-.33v-1.48h4.21v16.44l1.91.33v1.47h-6.11v-1.47l1.91-.33Z"/><path class="cls-1" d="M95.18,24.37c-1.17,0-2.19-.27-3.05-.81-.87-.53-1.53-1.27-2-2.22-.47-.95-.71-2.05-.71-3.3v-.51c0-1.21.25-2.28.75-3.23.49-.95,1.15-1.7,1.97-2.24.82-.55,1.72-.82,2.69-.82,1.14,0,2.09.23,2.86.7.76.47,1.34,1.12,1.73,1.97.39.85.58,1.84.58,2.99v1.44h-8.21l-.04.06c0,.79.15,1.51.43,2.15.27.63.66,1.13,1.16,1.48.5.36,1.11.54,1.82.54.78,0,1.46-.11,2.05-.33.59-.22,1.1-.53,1.53-.92l.9,1.5c-.45.44-1.05.8-1.79,1.1-.74.3-1.64.45-2.68.45ZM91.85,16.48l.02.06h5.83v-.3c0-.62-.11-1.16-.32-1.64-.22-.48-.54-.86-.96-1.13-.42-.27-.96-.41-1.6-.41-.51,0-.97.15-1.4.44-.87.63-1.4,1.62-1.58,2.98Z"/></g></svg>